<?xml version="1.0" encoding="utf-8"?>
<!-- Generator: Adobe Illustrator 16.0.0, SVG Export Plug-In . SVG Version: 6.00 Build 0)  -->
<!DOCTYPE svg PUBLIC "-//W3C//DTD SVG 1.1//EN" "http://www.w3.org/Graphics/SVG/1.1/DTD/svg11.dtd">
<svg version="1.1" id="Layer_1" xmlns="http://www.w3.org/2000/svg" xmlns:xlink="http://www.w3.org/1999/xlink" x="0px" y="0px"
	 width="95.826px" height="100px" viewBox="0 0 95.826 100" enable-background="new 0 0 95.826 100" xml:space="preserve">
<path fill="#959594" d="M84.873,37.665c0-6.603-5.966-12.574-12.569-12.574H22.009c-6.608,0-12.575,5.971-12.575,12.574v50.292
	c0,6.606,5.967,12.569,12.575,12.569h25.146V72.034h-9.218V59.462h9.218v-4.904c0-8.444,6.345-16.055,14.144-16.055h10.166v12.576
	H61.299c-1.114,0-2.407,1.348-2.407,3.374v5.01h12.573v12.572H58.892v28.492h13.412c6.604,0,12.569-5.963,12.569-12.569V37.665z"/>
</svg>
