<?xml version="1.0" encoding="utf-8"?>
<!-- Generator: Adobe Illustrator 16.0.0, SVG Export Plug-In . SVG Version: 6.00 Build 0)  -->
<!DOCTYPE svg PUBLIC "-//W3C//DTD SVG 1.1//EN" "http://www.w3.org/Graphics/SVG/1.1/DTD/svg11.dtd">
<svg version="1.1" id="Isolation_Mode" xmlns="http://www.w3.org/2000/svg" xmlns:xlink="http://www.w3.org/1999/xlink" x="0px"
	 y="0px" width="16px" height="16px" viewBox="344 38.043 16 16" enable-background="new 344 38.043 16 16" xml:space="preserve">
<path fill="#4E6088" d="M360,40.71c0-1.4-1.266-2.667-2.666-2.667h-10.667c-1.401,0-2.667,1.267-2.667,2.667v10.667
	c0,1.401,1.266,2.666,2.667,2.666H352V48h-1.955v-2.667H352v-1.04c0-1.791,1.346-3.405,3-3.405h2.156v2.667H355
	c-0.236,0-0.511,0.286-0.511,0.716v1.062h2.667V48h-2.667v6.043h2.845c1.4,0,2.666-1.265,2.666-2.666V40.71z"/>
</svg>
