<?xml version="1.0" encoding="utf-8"?>
<!-- Generator: Adobe Illustrator 16.0.0, SVG Export Plug-In . SVG Version: 6.00 Build 0)  -->
<!DOCTYPE svg PUBLIC "-//W3C//DTD SVG 1.1//EN" "http://www.w3.org/Graphics/SVG/1.1/DTD/svg11.dtd">
<svg version="1.1" id="Isolation_Mode" xmlns="http://www.w3.org/2000/svg" xmlns:xlink="http://www.w3.org/1999/xlink" x="0px"
	 y="0px" width="19.688px" height="15.999px" viewBox="298.109 98.044 19.688 15.999"
	 enable-background="new 298.109 98.044 19.688 15.999" xml:space="preserve">
<path fill="#A4B4D4" d="M317.798,99.937c-0.725,0.322-1.502,0.539-2.319,0.637c0.834-0.5,1.475-1.292,1.776-2.235
	c-0.78,0.463-1.646,0.799-2.563,0.98c-0.737-0.785-1.787-1.275-2.95-1.275c-2.23,0-4.039,1.809-4.039,4.039
	c0,0.317,0.036,0.625,0.104,0.921c-3.356-0.168-6.332-1.776-8.324-4.22c-0.349,0.596-0.549,1.29-0.549,2.03
	c0,1.402,0.713,2.638,1.799,3.362c-0.664-0.02-1.284-0.203-1.83-0.505c0,0.017,0,0.034,0,0.051c0,1.957,1.393,3.589,3.238,3.96
	c-0.338,0.093-0.695,0.142-1.063,0.142c-0.261,0-0.513-0.025-0.759-0.072c0.515,1.604,2.005,2.772,3.771,2.805
	c-1.382,1.083-3.122,1.729-5.015,1.729c-0.327,0-0.647-0.02-0.965-0.057c1.787,1.146,3.912,1.814,6.192,1.814
	c7.429,0,11.491-6.155,11.491-11.493c0-0.175-0.003-0.349-0.011-0.522C316.57,101.458,317.257,100.747,317.798,99.937z"/>
</svg>
